<?xml version="1.0" encoding="UTF-8" standalone="no"?>
<!-- Created with Inkscape (http://www.inkscape.org/) -->

<svg
   version="1.1"
   width="791.77301"
   height="430.17917"
   id="svg2"
   xmlns="http://www.w3.org/2000/svg"
   xmlns:svg="http://www.w3.org/2000/svg"
   xmlns:rdf="http://www.w3.org/1999/02/22-rdf-syntax-ns#"
   xmlns:cc="http://creativecommons.org/ns#"
   xmlns:dc="http://purl.org/dc/elements/1.1/">
  <defs
     id="defs4" />
  <metadata
     id="metadata7">
    <rdf:RDF>
      <cc:Work
         rdf:about="">
        <dc:format>image/svg+xml</dc:format>
        <dc:type
           rdf:resource="http://purl.org/dc/dcmitype/StillImage" />
      </cc:Work>
    </rdf:RDF>
  </metadata>
  <g
     transform="translate(-7.8319855,-708.41039)"
     id="layer1">
    <rect
       width="789"
       height="246.39999"
       x="7.8319998"
       y="800.29999"
       id="rect3837"
       style="fill:#1d5f6d;fill-opacity:1;stroke:none" />
    <g
       transform="matrix(0.8176,0,0,0.7303,196.4,531.7)"
       id="text2996"
       style="font-style:normal;font-variant:normal;font-weight:normal;font-stretch:normal;font-size:37.236px;line-height:100%;font-family:Century;-inkscape-font-specification:Century;text-align:start;letter-spacing:0px;word-spacing:0px;writing-mode:lr-tb;text-anchor:start;fill:#ffffff;fill-opacity:1;stroke:none">
      <path
         d="m 690.3,398.7 h 13.9 c 2.7,0 4.8,0.6 6.2,1.9 1.5,1.2 2.3,2.8 2.3,4.8 0,1.2 -0.3,2.2 -0.9,3.1 -0.6,1 -1.4,1.7 -2.6,2.3 -1.1,0.5 -2.8,0.9 -5.2,1.2 1.8,0.4 2.9,0.9 3.6,1.3 0.7,0.5 1.2,1.1 1.6,1.8 0.4,0.7 0.8,2.2 1.3,4.4 0.4,1.6 0.8,2.7 1.2,3.3 0.3,0.4 0.6,0.6 1,0.6 0.4,0 0.7,-0.2 1.1,-0.8 0.3,-0.5 0.5,-1.5 0.5,-2.9 h 1.3 c -0.2,4.1 -1.8,6.2 -4.6,6.2 -0.9,0 -1.6,-0.2 -2.3,-0.7 -0.6,-0.4 -1.1,-1.1 -1.4,-2 -0.3,-0.6 -0.6,-2.3 -0.9,-5.1 -0.2,-1.6 -0.5,-2.8 -0.9,-3.5 -0.4,-0.6 -1,-1.2 -1.8,-1.6 -0.8,-0.4 -1.8,-0.6 -3,-0.6 h -2.2 V 423 c 0,0.4 0.1,0.7 0.3,0.9 0.3,0.2 0.8,0.3 1.4,0.3 h 2.6 v 1.4 h -12.5 v -1.4 h 2.6 c 0.6,0 1,-0.1 1.3,-0.3 0.3,-0.2 0.4,-0.5 0.4,-0.9 v -21.5 c 0,-0.5 -0.1,-0.8 -0.4,-1.1 -0.3,-0.2 -0.7,-0.3 -1.3,-0.3 h -2.6 z m 8.2,12.4 h 3.2 c 2.1,0 3.8,-0.4 5,-1.2 1.2,-0.8 1.8,-2.3 1.8,-4.3 0,-1.4 -0.2,-2.6 -0.7,-3.4 -0.4,-0.8 -1,-1.4 -1.8,-1.7 -0.7,-0.3 -2.2,-0.4 -4.3,-0.4 -1.5,0 -2.4,0.1 -2.7,0.3 -0.3,0.2 -0.5,0.5 -0.5,1 z"
         id="path3842"
         style="fill:#ffffff" />
    </g>
    <path
       d="m 765.7,389.1 a 22.5,22.5 0 1 1 -45,0 22.5,22.5 0 1 1 45,0 z"
       transform="matrix(0.7487,0,0,0.7487,214.1,541.5)"
       id="path3000"
       style="fill:none;stroke:#ffffff;stroke-width:3.0963;stroke-miterlimit:4;stroke-dasharray:none" />
    <path
       d="m 207.9,843.1 -14.6,38.5 H 96.44 c -20.53,0 -20.76,27 0,27 h 56.66 c 72.2,-0.1 72.2,102.4 0,102.4 H 42.3 l 15.22,-37.6 h 97.08 c 20.9,0 21.4,-27.3 0,-27.3 H 98.61 c -73.16,0 -73.39,-103 0,-103 z"
       id="path3782"
       style="fill:#ffffff;stroke:none" />
    <path
       d="m 212,843.1 -14.6,38.5 h 46.1 V 1011 h 37.9 V 881.6 h 36.4 l 14.6,-38.5 z"
       id="path3792"
       style="fill:#ffffff;stroke:none" />
    <path
       d="m 335.4,843.1 -14.6,38.5 h 108.5 c 7.3,0 13.5,4.4 13.5,12.6 v 14.4 h -85.9 c -66.3,0 -66.6,102.4 0,102.4 H 480.6 V 893.6 c 0,-24.3 -20.4,-50.5 -53.3,-50.5 z m 23.5,103 h 83.9 v 27.3 h -83.9 c -19.6,0 -19,-27.3 0,-27.3 z"
       id="path3794"
       style="fill:#ffffff;stroke:none" />
    <path
       d="m 619.7,843.1 -14.6,38.5 h 108.5 c 7.4,0 13.6,4.4 13.6,12.6 v 14.4 h -85.9 c -66.3,0 -66.6,102.4 0,102.4 H 764.9 V 893.6 c 0,-24.3 -20.4,-50.5 -53.2,-50.5 z m 23.5,103 h 84 v 27.3 h -84 c -19.5,0 -19,-27.3 0,-27.3 z"
       id="path3794-5"
       style="fill:#ffffff;stroke:none" />
    <path
       d="M 495.6,843.1 481,881.6 h 46.1 V 1011 h 37.8 V 881.6 h 36.4 L 616,843.1 Z"
       id="path3792-3"
       style="fill:#ffffff;stroke:none" />
    <rect
       width="2.7049999"
       height="3.405"
       x="796.90002"
       y="1047"
       id="rect3839"
       style="fill:#ff0000;fill-opacity:1;fill-rule:nonzero;stroke:none" />
  </g>
  <rect
     style="fill:#ffffff;stroke:none;stroke-width:0.843066"
     id="rect64"
     width="789"
     height="91.889595"
     x="1.4326367e-05"
     y="338.28958" />
  <rect
     style="fill:#ffffff;stroke:none;stroke-width:0.843066"
     id="rect64-3"
     width="789"
     height="91.889595"
     x="0"
     y="0" />
  <rect
     style="fill:#ffffff;stroke:none;stroke-width:1.10655"
     id="rect737"
     width="2.9130681"
     height="3.871516"
     x="788.86005"
     y="338.32755" />
</svg>
